<svg id="Layer_1" data-name="Layer 1" xmlns="http://www.w3.org/2000/svg" width="180" height="165" viewBox="0 0 180 165">
  <g>
    <path d="M114,31.3l-1.3-.2a3.6,3.6,0,0,1-2.3-4.6,63.4,63.4,0,0,0,4.9-23.4c0-13.7-4.7-45.5-47.9-45.5-14.7,0-20.2,4.9-26,10.1-1.8,1.5-3.8,3.3-6.1,4.9a3.6,3.6,0,0,1-2.3.8,4.1,4.1,0,0,1-2.4-.8c-2.1-1.5-4-3.2-5.9-4.8h-.1c-5.9-5.2-11.5-10.1-26-10.1-41.7,0-47.9,28.5-47.9,45.5a63.4,63.4,0,0,0,4.9,23.4,3.6,3.6,0,0,1-.1,2.7A4,4,0,0,1-46.7,31a3.4,3.4,0,0,1-1.4.2,3.9,3.9,0,0,1-3.6-2.3A70,70,0,0,1-57,3.1c0-32.9,20.8-52.6,55.6-52.6,17.7,0,25.3,6.7,31.4,12.1l1.7,1.5a2.1,2.1,0,0,0,1.3.5,2.1,2.1,0,0,0,1.3-.5L36-37.4c6.1-5.4,13.6-12.1,31.4-12.1,34.3,0,55.6,20.2,55.6,52.6a70,70,0,0,1-5.3,25.8A3.9,3.9,0,0,1,114,31.3Z" transform="translate(57 49.5)" style="fill: #829ccc"/>
    <path d="M33,115.5a3.7,3.7,0,0,1-2.1-.6A288.4,288.4,0,0,1-22,72.2a3.4,3.4,0,0,1,.4-5,3.8,3.8,0,0,1,2.5-.9,4.3,4.3,0,0,1,2.9,1.2C2.5,87,23.6,101.6,31.9,107a2,2,0,0,0,1.1.3l1.1-.3c8.2-5.4,29.4-20,48-39.5A4,4,0,0,1,85,66.3a4.3,4.3,0,0,1,2.6.9,3.6,3.6,0,0,1,1.3,2.4,3.5,3.5,0,0,1-1,2.6C64.5,96.6,38,113.1,35.1,114.9A3.7,3.7,0,0,1,33,115.5Z" transform="translate(57 49.5)" style="fill: #829ccc"/>
    <path d="M33,78.6a3.8,3.8,0,0,1-3.7-2.4l-18.2-50A1.7,1.7,0,0,0,9.4,25H9.3a1.9,1.9,0,0,0-1.7,1L-3.7,50.2a3.8,3.8,0,0,1-3.5,2.1h-46A3.7,3.7,0,0,1-57,48.8a3.7,3.7,0,0,1,3.8-3.5H-11a1.9,1.9,0,0,0,1.8-1.1L6.5,10.6A3.6,3.6,0,0,1,10,8.4h.2a3.9,3.9,0,0,1,3.5,2.4L30.4,56.9a2,2,0,0,0,1.8,1.2h.1a2,2,0,0,0,1.8-1.3L52.2-9.9A3.9,3.9,0,0,1,56-12.6,3.7,3.7,0,0,1,59.7-10L75.8,44a1.7,1.7,0,0,0,1.8,1.3h41.6a3.6,3.6,0,1,1,0,7.1h-46a3.9,3.9,0,0,1-3.8-2.6L58,11.3A1.8,1.8,0,0,0,56.2,10h-.1a2,2,0,0,0-1.8,1.3L36.7,76a3.7,3.7,0,0,1-3.6,2.6Z" transform="translate(57 49.5)" style="fill: #829ccc"/>
  </g>
</svg>
