<svg id="Layer_1" data-name="Layer 1" xmlns="http://www.w3.org/2000/svg" width="180" height="165" viewBox="0 0 180 165">
  <g>
    <path d="M-49.8,115.5c-6,0-10.8-4-10.8-8.8V-40.7c0-4.8,4.8-8.8,10.8-8.8H40.4c6,0,10.8,4,10.8,8.8V106.7c0,4.8-4.8,8.8-10.8,8.8Zm0-157.9a1.9,1.9,0,0,0-2.1,1.7V106.7c0,1,.9,1.7,2.1,1.7H40.4c1.2,0,2.1-.7,2.1-1.7V-40.7a1.5,1.5,0,0,0-.7-1.2,2.5,2.5,0,0,0-1.5-.5Z" transform="translate(60.6 49.5)" style="fill: #829ccc"/>
    <rect x="25.8" y="131.6" width="8.7" height="7.08" style="fill: #829ccc"/>
    <rect x="77.4" y="131.6" width="8.7" height="7.08" style="fill: #829ccc"/>
    <rect x="25.8" y="110.6" width="8.7" height="7.08" style="fill: #829ccc"/>
    <rect x="77.4" y="110.6" width="8.7" height="7.08" style="fill: #829ccc"/>
    <rect x="25.8" y="89.5" width="8.7" height="7.07" style="fill: #829ccc"/>
    <rect x="77.4" y="89.5" width="8.7" height="7.07" style="fill: #829ccc"/>
    <rect x="25.8" y="68.4" width="8.7" height="7.07" style="fill: #829ccc"/>
    <rect x="77.4" y="68.4" width="8.7" height="7.07" style="fill: #829ccc"/>
    <rect x="25.8" y="47.4" width="8.7" height="7.07" style="fill: #829ccc"/>
    <rect x="77.4" y="47.4" width="8.7" height="7.07" style="fill: #829ccc"/>
    <rect x="25.8" y="26.3" width="8.7" height="7.07" style="fill: #829ccc"/>
    <rect x="77.4" y="26.3" width="8.7" height="7.07" style="fill: #829ccc"/>
    <path d="M-4.7,94.5c-2.4,0-4.3-1.6-4.3-3.6V-24.9c0-1.9,1.9-3.5,4.3-3.5s4.3,1.6,4.3,3.5V90.9C-.4,92.8-2.3,94.5-4.7,94.5Z" transform="translate(60.6 49.5)" style="fill: #829ccc"/>
    <path d="M92.5,115.5c-14.8,0-26.9-9.8-26.9-21.9v-58c0-12.1,12.1-21.9,26.9-21.9s26.9,9.8,26.9,21.9V93.5C119.4,105.7,107.4,115.5,92.5,115.5ZM76.4,68.1a1.9,1.9,0,0,0-2.1,1.8V93.6c0,8.2,8.2,14.9,18.2,14.9s18.3-6.7,18.3-14.9V69.9a2,2,0,0,0-2.1-1.8ZM92.5,20.8c-10,0-18.2,6.6-18.2,14.9V59.4a1.9,1.9,0,0,0,2.1,1.7h32.2a1.9,1.9,0,0,0,2.1-1.7V35.7C110.8,27.4,102.6,20.8,92.5,20.8Z" transform="translate(60.6 49.5)" style="fill: #829ccc"/>
  </g>
</svg>
