<svg width="149" height="190" xmlns="http://www.w3.org/2000/svg" xmlns:xlink="http://www.w3.org/1999/xlink" overflow="hidden"><defs><clipPath id="clip0"><path d="M665 205 814 205 814 395 665 395Z" fill-rule="evenodd" clip-rule="evenodd"/></clipPath><clipPath id="clip1"><path d="M665 205 813 205 813 395 665 395Z" fill-rule="evenodd" clip-rule="evenodd"/></clipPath><clipPath id="clip2"><path d="M665 205 813 205 813 395 665 395Z" fill-rule="evenodd" clip-rule="evenodd"/></clipPath><clipPath id="clip3"><path d="M665 202 813 202 813 395 665 395Z" fill-rule="evenodd" clip-rule="evenodd"/></clipPath></defs><g clip-path="url(#clip0)" transform="translate(-665 -205)"><g clip-path="url(#clip1)"><g clip-path="url(#clip2)"><g clip-path="url(#clip3)"><path d="M126.577 46.0515C126.634 45.5895 126.837 45.1853 127.154 44.8677L146.787 25.2345C148.375 23.6465 148.375 21.048 146.787 19.46L128.54 1.21264C127.789 0.433086 126.779 0 125.682 0 124.584 0 123.574 0.433086 122.794 1.18377L103.161 20.817C102.844 21.1346 102.41 21.3367 101.977 21.3945 91.6699 22.5205 83.3835 30.8357 82.2286 41.1432 82.1709 41.6052 81.9688 42.0094 81.6512 42.327L54.1358 69.8424C53.7316 70.2177 53.2407 70.4198 52.721 70.4198 52.2013 70.4198 51.7105 70.2177 51.3063 69.8424L49.5162 68.0523C48.7366 67.2727 47.7261 66.8685 46.629 66.8685 45.5318 66.8685 44.5213 67.3016 43.7417 68.0523 42.9622 68.8318 42.5579 69.8424 42.5579 70.9395 42.5579 72.0367 42.991 73.0472 43.7417 73.8268L45.5318 75.6169C46.3114 76.3964 46.3114 77.6668 45.5318 78.4464L31.5864 92.3917C30.8069 93.1713 30.4027 94.1818 30.4027 95.279 30.4027 96.3761 30.8357 97.3867 31.5864 98.1662L49.8338 116.414C50.6133 117.193 51.6239 117.597 52.721 117.597 53.8182 117.597 54.8287 117.164 55.6083 116.414L69.5536 102.468C69.929 102.093 70.4487 101.891 70.9684 101.891 71.4881 101.891 72.0078 102.093 72.3831 102.468L74.1732 104.258C74.9528 105.038 75.9633 105.442 77.0605 105.442 78.1576 105.442 79.1682 105.009 79.9477 104.258 81.5357 102.67 81.5357 100.072 79.9477 98.4838L78.1576 96.6937C77.7823 96.3184 77.5802 95.7987 77.5802 95.279 77.5802 94.7593 77.7823 94.2396 78.1576 93.8642L105.673 66.3488C105.991 66.0312 106.424 65.8291 106.857 65.7714 112.14 65.1939 117.049 62.7109 120.716 58.8131 121.091 58.4089 121.611 58.1779 122.159 58.1779 122.188 58.1779 122.246 58.1779 122.275 58.1779 122.852 58.2068 123.401 58.4955 123.776 58.9863 130.301 67.7636 133.766 78.2154 133.766 89.1869 133.766 106.135 125.364 121.87 111.245 131.312 111.101 131.398 110.957 131.543 110.755 131.687 110.379 132.034 109.888 132.207 109.398 132.207 108.993 132.207 108.589 132.091 108.243 131.831 104.432 129.089 99.9563 127.645 95.279 127.645L16.2552 127.645C14.0031 127.645 12.1842 129.464 12.1842 131.716 12.1842 133.968 14.0031 135.787 16.2552 135.787L74.231 135.787C74.9528 135.787 75.6169 136.162 75.9633 136.798 76.3098 137.404 76.3098 138.183 75.9633 138.79 74 142.168 72.9606 146.037 72.9606 149.934L72.9606 156.027C72.9606 157.124 72.0655 158.019 70.9684 158.019L4.07101 158.019C1.81896 158.076 0 159.895 0 162.147L0 186.458C0 188.739 1.81896 190.558 4.07101 190.558L137.837 190.558C140.089 190.558 141.908 188.739 141.908 186.487L141.908 162.176C141.908 159.924 140.089 158.105 137.837 158.105L119.59 158.105C118.492 158.105 117.597 157.21 117.597 156.113L117.597 150.021C117.597 146.672 116.876 143.438 115.432 140.407 114.999 139.512 115.288 138.443 116.125 137.895 132.293 126.923 141.937 108.734 141.937 89.2158 141.937 74.7218 136.624 60.8053 126.923 49.9781L126.808 49.8627C126.346 49.4007 126.172 48.7366 126.288 48.1014 126.403 47.4085 126.519 46.7444 126.577 46.0515ZM81.1315 149.992C81.1315 142.197 87.4834 135.845 95.279 135.845 103.075 135.845 109.426 142.197 109.426 149.992L109.426 156.084C109.426 157.181 108.531 158.076 107.434 158.076L83.1237 158.076C82.0265 158.076 81.1315 157.181 81.1315 156.084L81.1315 149.992ZM131.745 166.247C132.842 166.247 133.737 167.142 133.737 168.24L133.737 180.395C133.737 181.492 132.842 182.387 131.745 182.387L10.1631 182.387C9.06594 182.387 8.17089 181.492 8.17089 180.395L8.17089 168.24C8.17089 167.142 9.06594 166.247 10.1631 166.247L131.745 166.247ZM63.7792 96.6937 54.1358 106.337C53.7316 106.741 53.2407 106.915 52.721 106.915 52.2013 106.915 51.7105 106.712 51.3063 106.337L41.6629 96.6937C41.2876 96.3184 41.0854 95.7987 41.0854 95.279 41.0854 94.7593 41.2876 94.2396 41.6629 93.8642L51.3063 84.2208C51.6816 83.8166 52.2013 83.6434 52.721 83.6434 53.2407 83.6434 53.7316 83.8455 54.1358 84.2208L63.7792 93.8642C64.5587 94.6438 64.5587 95.9142 63.7792 96.6937ZM94.1241 66.3488 72.3831 88.0897C71.9789 88.494 71.4881 88.6672 70.9684 88.6672 70.4487 88.6672 69.9579 88.4651 69.5536 88.0897L59.9103 78.4464C59.5349 78.071 59.3328 77.5513 59.3328 77.0316 59.3328 76.5119 59.5349 75.9922 59.9103 75.6169L81.6512 53.8759C82.0265 53.5006 82.5174 53.3274 83.0371 53.3274 83.1237 53.3274 83.2103 53.3274 83.3258 53.3562 83.9321 53.414 84.5096 53.8182 84.8272 54.3379L84.9426 54.5111C85.1159 54.8287 85.318 55.1752 85.5201 55.4928L85.7511 55.8393C86.0109 56.2146 86.2708 56.5899 86.5306 56.9653 86.5306 56.9941 86.5884 57.0519 86.6172 57.0808 86.8771 57.4272 87.137 57.7448 87.4257 58.0913L87.6567 58.3512C88.263 59.0441 88.9559 59.7082 89.6488 60.3433L89.9376 60.5743C90.2552 60.8631 90.6016 61.1229 90.9192 61.3828L91.0347 61.4694C91.4101 61.7581 91.7854 62.0179 92.1608 62.2778L92.4783 62.4799C92.7959 62.682 93.1135 62.8841 93.4889 63.0862L93.6621 63.2017C94.2107 63.5193 94.586 64.039 94.6727 64.6742 94.7881 65.2805 94.5572 65.8869 94.1241 66.3488ZM104.403 57.7448C96.6071 57.7448 90.2552 51.3929 90.2552 43.5974 90.2552 35.8018 96.6071 29.4499 104.403 29.4499 112.198 29.4499 118.55 35.8018 118.55 43.5974 118.55 51.4218 112.198 57.7448 104.403 57.7448ZM125.739 33.8962C125.653 33.8962 125.537 33.8962 125.451 33.8673 124.815 33.7807 124.267 33.4054 123.978 32.8279L123.863 32.6547C123.689 32.3371 123.487 31.9906 123.285 31.673L123.054 31.3266C122.794 30.9512 122.535 30.5759 122.246 30.1717 122.246 30.1717 122.188 30.0851 122.188 30.0851 121.928 29.7386 121.668 29.421 121.38 29.0745L121.149 28.8147C120.513 28.1217 119.849 27.4577 119.156 26.8225L118.868 26.5915C118.55 26.3028 118.204 26.0429 117.886 25.7831L117.771 25.6964C117.395 25.4077 117.02 25.1479 116.645 24.9169L116.298 24.6859C115.98 24.4838 115.663 24.2817 115.316 24.1085L115.114 23.993C114.566 23.6754 114.19 23.1557 114.104 22.5205 114.017 21.9142 114.219 21.279 114.681 20.8459L124.267 11.2602C124.642 10.8849 125.162 10.6828 125.682 10.6828 126.201 10.6828 126.692 10.8849 127.096 11.2602L136.74 20.9036C137.115 21.279 137.317 21.7987 137.317 22.3184 137.317 22.8381 137.115 23.3578 136.74 23.7331L127.154 33.3188C126.75 33.6941 126.259 33.8962 125.739 33.8962Z" fill="#829CCC" transform="matrix(1 0 -0 1.0028 665 203.42)"/><path d="M104.403 39.5263C102.151 39.5263 100.303 41.3453 100.303 43.6262 100.303 45.8783 102.122 47.7261 104.403 47.7261 106.655 47.7261 108.474 45.9071 108.474 43.6262 108.474 41.3453 106.655 39.5263 104.403 39.5263Z" fill="#829CCC" transform="matrix(1 0 -0 1.0028 665 203.42)"/></g></g></g></g></svg>