<svg id="Layer_1" data-name="Layer 1" xmlns="http://www.w3.org/2000/svg" width="30" height="40.3" viewBox="0 0 30 40.3">
  <g>
    <path d="M23.3,31.3a.7.7,0,0,1-.6-.3l-2.6-2.5a.9.9,0,0,1,0-1.2.9.9,0,0,1,.6-.3.6.6,0,0,1,.6.3L23,28.9h.6l4.2-4.2a.9.9,0,0,1,.6-.3.6.6,0,0,1,.6.3.7.7,0,0,1,0,1.2L23.9,31A.9.9,0,0,1,23.3,31.3Z" transform="translate(-9.6 -12.9)" style="fill: #829ccc"/>
    <path d="M24.6,37.7a9.9,9.9,0,1,1,9.8-9.8A9.8,9.8,0,0,1,24.6,37.7Zm0-18a8.2,8.2,0,1,0,0,16.3,8.2,8.2,0,0,0,0-16.3Z" transform="translate(-9.6 -12.9)" style="fill: #829ccc"/>
    <path d="M24.6,53.1a.7.7,0,0,1-.6-.2c-.6-.4-14.4-11.9-14.4-25a15,15,0,0,1,30,0c0,13.1-13.9,24.6-14.5,25S24.8,53.1,24.6,53.1Zm0-38.5A13.3,13.3,0,0,0,11.3,27.9c0,10.5,9.9,20.3,13,23h.6c3-2.7,12.9-12.5,12.9-23A13.1,13.1,0,0,0,24.6,14.6Z" transform="translate(-9.6 -12.9)" style="fill: #829ccc"/>
  </g>
</svg>
