<svg id="Layer_1" data-name="Layer 1" xmlns="http://www.w3.org/2000/svg" width="180" height="165" viewBox="0 0 180 165">
  <g>
    <path d="M-1.4,57.6c-11.9,0-21.1-13.5-21.1-30.6C-22.5,5.5-7.8,3.1-1.4,3.1s21,2.4,21,23.9C19.6,44.1,10.4,57.6-1.4,57.6Zm0-47.4c-3.3,0-13.4,0-13.4,16.8,0,12.5,6.2,23.5,13.4,23.5S11.9,39.5,11.9,27C11.9,10.2,1.9,10.2-1.4,10.2Z" transform="translate(57 49.5)" style="fill: #829ccc"/>
    <path d="M-53.2,115.5A3.7,3.7,0,0,1-57,112V90.6c.5-4.3,1.7-9.9,3.6-12.6,3.4-5.1,8.5-5.9,13-6.7a18.2,18.2,0,0,0,6-2.3c3.4-2,5.5-3.9,6.4-5.8a4.1,4.1,0,0,1,3.6-2.1,3.7,3.7,0,0,1,1.5.3,3.4,3.4,0,0,1,2,4.7c-1.5,3.2-4.6,6.1-9.3,8.8a26.2,26.2,0,0,1-8.3,3.3c-4.8.8-6.8,1.2-8.4,3.5s-2,6.4-2.4,9.3v15.7a1.8,1.8,0,0,0,1.9,1.7h11.5a1.8,1.8,0,0,0,1.9-1.7V96.2a3.6,3.6,0,0,1,3.8-3.5,3.6,3.6,0,0,1,3.9,3.5v10.5a1.7,1.7,0,0,0,1.9,1.7H21.5a1.7,1.7,0,0,0,1.9-1.7V96.2a3.6,3.6,0,0,1,3.8-3.5,3.6,3.6,0,0,1,3.9,3.5v10.5a1.7,1.7,0,0,0,1.9,1.7H44.5a1.7,1.7,0,0,0,1.8-1.7V91C46,88.1,45,83.3,44,81.8s-3.7-2.8-7.9-3.6a24.9,24.9,0,0,1-8.8-3.3c-4.7-2.8-7.8-5.7-9.3-8.9a3.4,3.4,0,0,1,1.9-4.7,4.1,4.1,0,0,1,1.6-.3A4,4,0,0,1,25,63.1c1,1.9,3.1,3.8,6.4,5.8A17.5,17.5,0,0,0,37,71.2c5,.8,10,1.7,13.5,6.7,1.9,2.8,3.1,8.3,3.6,12.6v21.4a3.7,3.7,0,0,1-3.9,3.6Z" transform="translate(57 49.5)" style="fill: #829ccc"/>
    <path d="M57.6,50.8l-1.4-.2a3.6,3.6,0,0,1-2.4-3.3V21a1.9,1.9,0,0,0-1.9-1.8H30.6a3.6,3.6,0,0,1-3.9-3.5,3.6,3.6,0,0,1,3.9-3.5h27a3.6,3.6,0,0,1,3.9,3.5V34.6a1.7,1.7,0,0,0,1.1,1.6h.8a2.4,2.4,0,0,0,1.3-.5L89.3,13.2a4,4,0,0,1,2.8-1h21.3a1.9,1.9,0,0,0,1.9-1.8V-40.7a1.9,1.9,0,0,0-1.9-1.7H13.3a1.8,1.8,0,0,0-1.8,1.7V-5.4A3.7,3.7,0,0,1,7.6-1.9,3.6,3.6,0,0,1,3.8-5.4V-40.7c0-4.8,4.3-8.8,9.6-8.8h100c5.3,0,9.6,4,9.6,8.8V10.4c0,4.9-4.3,8.8-9.6,8.8h-19a2.4,2.4,0,0,0-1.3.5L60.4,49.8A4.5,4.5,0,0,1,57.6,50.8Z" transform="translate(57 49.5)" style="fill: #829ccc"/>
  </g>
</svg>
