<svg id="Layer_1" data-name="Layer 1" xmlns="http://www.w3.org/2000/svg" width="44" height="44" viewBox="0 0 44 44">
  <g>
    <path d="M37.2,31.1l-.7-.2-2.8-2.8a1.2,1.2,0,0,1,0-1.4,1.1,1.1,0,0,1,.7-.3.9.9,0,0,1,.7.3l1.8,1.8.3.2c.1,0,.3-.1.3-.2l4.7-4.6a.7.7,0,0,1,.6-.3.9.9,0,0,1,.7.3.9.9,0,0,1,0,1.3l-5.6,5.7Z" transform="translate(-11 -11)" style="fill: #829ccc"/>
    <path d="M15.5,55A4.4,4.4,0,0,1,11,50.7V15.3A4.4,4.4,0,0,1,15.5,11h21A4.4,4.4,0,0,1,41,15.3v.9a.4.4,0,0,0,.4.4H54.1a.9.9,0,0,1,.9,1V37.2a1,1,0,0,1-.9,1H38.8l-8,6.7-.6.2h-.4a1.1,1.1,0,0,1-.5-.9V38.6c0-.2-.3-.4-.5-.4H23.2a1.1,1.1,0,0,1-1-1V17.6a1,1,0,0,1,1-1H38.6a.5.5,0,0,0,.5-.4v-.9a2.5,2.5,0,0,0-2.6-2.4h-21a2.5,2.5,0,0,0-2.6,2.4v.9a.4.4,0,0,0,.4.4H19a.9.9,0,0,1,.9,1,.9.9,0,0,1-.9.9H13.3a.5.5,0,0,0-.4.5V47a.5.5,0,0,0,.4.5H38.6a.5.5,0,0,0,.5-.5V41.4a.9.9,0,0,1,.9-.9,1,1,0,0,1,1,.9v9.3A4.4,4.4,0,0,1,36.5,55Zm-2.2-5.6a.4.4,0,0,0-.4.4v.9a2.5,2.5,0,0,0,2.6,2.4h21a2.5,2.5,0,0,0,2.6-2.4v-.9a.5.5,0,0,0-.5-.4ZM24.6,18.5a.5.5,0,0,0-.5.5V35.8a.5.5,0,0,0,.5.5h5.6a.9.9,0,0,1,.9.9v4c0,.2.1.4.3.4h.5L38,36.5a.7.7,0,0,1,.6-.2H52.7a.5.5,0,0,0,.4-.5V19a.5.5,0,0,0-.4-.5Z" transform="translate(-11 -11)" style="fill: #829ccc"/>
  </g>
</svg>
