<svg id="Layer_1" data-name="Layer 1" xmlns="http://www.w3.org/2000/svg" xmlns:xlink="http://www.w3.org/1999/xlink" width="179" height="164.1" viewBox="0 0 179 164.1">
  <defs>
    <clipPath id="clip-path" transform="translate(-10.5 -8.1)">
      <rect x="10.5" y="8.5" width="180" height="165" style="fill: none"/>
    </clipPath>
    <clipPath id="clip-path-2" transform="translate(-10.5 -8.1)">
      <rect x="10.5" y="8.5" width="179.1" height="164.09" style="fill: none"/>
    </clipPath>
    <clipPath id="clip-path-4" transform="translate(-10.5 -8.1)">
      <rect x="10.5" y="7.6" width="179.1" height="165" style="fill: none"/>
    </clipPath>
  </defs>
  <g style="clip-path: url(#clip-path)">
    <g style="clip-path: url(#clip-path-2)">
      <g style="clip-path: url(#clip-path-2)">
        <g style="clip-path: url(#clip-path-4)">
          <g>
            <path d="M71.5,172.2a3.9,3.9,0,0,1-3.8-3.9,3.8,3.8,0,0,1,3.8-3.9H180.1a1.9,1.9,0,0,0,1.8-1.9V53.2a8.4,8.4,0,0,0-8.3-8.4H26.5a8.4,8.4,0,0,0-8.3,8.4V162.5a1.9,1.9,0,0,0,1.9,1.9H37.2a3.8,3.8,0,0,1,3.8,3.9,3.9,3.9,0,0,1-3.8,3.9H14.3a3.9,3.9,0,0,1-3.8-3.9V53.2A16,16,0,0,1,25.8,37.1a1.9,1.9,0,0,0,1.8-1.9V29.3a3.9,3.9,0,0,1,7.7,0v5.8A1.8,1.8,0,0,0,37.1,37H48.6a1.8,1.8,0,0,0,1.8-1.9V23.6A15.5,15.5,0,0,1,65.7,8.1h68.6a15.4,15.4,0,0,1,15.3,15.5V35.1a1.8,1.8,0,0,0,1.8,1.9h11.5a1.8,1.8,0,0,0,1.8-1.9V29.3a3.9,3.9,0,0,1,3.9-3.8,3.8,3.8,0,0,1,3.8,3.8v5.9a1.9,1.9,0,0,0,1.8,1.9,16,16,0,0,1,15.3,16.1v115a3.8,3.8,0,0,1-3.8,3.9H71.5ZM65.8,15.9a7.6,7.6,0,0,0-7.6,7.7V35.1A1.8,1.8,0,0,0,60.1,37h80a1.8,1.8,0,0,0,1.8-1.9V23.6a7.6,7.6,0,0,0-7.6-7.7Z" transform="translate(-10.5 -8.1)" style="fill: #829ccc"/>
            <path d="M88.6,143.2a3.8,3.8,0,0,1-3.8-3.9V122a1.8,1.8,0,0,0-1.9-1.9H65.8a3.9,3.9,0,0,1-3.8-3.9V93a3.8,3.8,0,0,1,3.8-3.8H82.9a1.9,1.9,0,0,0,1.9-1.9V69.9A3.8,3.8,0,0,1,88.6,66h22.9a3.8,3.8,0,0,1,3.8,3.9V87.3a1.9,1.9,0,0,0,1.9,1.9h17.1a3.9,3.9,0,0,1,3.9,3.8v23.2a4,4,0,0,1-3.9,3.9H117.2a1.8,1.8,0,0,0-1.9,1.9v17.3a3.8,3.8,0,0,1-3.8,3.9ZM71.5,96.9a1.9,1.9,0,0,0-1.9,1.9v11.6a1.9,1.9,0,0,0,1.9,1.9H88.6a3.9,3.9,0,0,1,3.9,3.9v17.3a1.8,1.8,0,0,0,1.8,1.9h11.5a1.8,1.8,0,0,0,1.8-1.9V116.2a3.8,3.8,0,0,1,3.8-3.9h17.2a2,2,0,0,0,1.9-1.9V98.8a2,2,0,0,0-1.9-1.9H111.4a3.8,3.8,0,0,1-3.8-3.9V75.7a1.8,1.8,0,0,0-1.8-1.9H94.3a1.8,1.8,0,0,0-1.8,1.9V93a3.9,3.9,0,0,1-3.9,3.9Z" transform="translate(-10.5 -8.1)" style="fill: #829ccc"/>
          </g>
        </g>
      </g>
    </g>
  </g>
</svg>
