<svg id="Layer_1" data-name="Layer 1" xmlns="http://www.w3.org/2000/svg" width="160" height="165" viewBox="0 0 160 165">
  <g>
    <path d="M96.2-23.2H83.5a1.8,1.8,0,0,1-2-1.7v-5.3c0-1.9-1.9-3.5-4.3-3.5h-26a1.9,1.9,0,0,1-2-1.3c-2.7-8.5-11.9-14.5-22.5-14.5S6.9-43.5,4.2-35a1.9,1.9,0,0,1-2,1.3h-26c-2.4,0-4.2,1.6-4.2,3.5v5.3a1.9,1.9,0,0,1-2.1,1.7H-42.8c-5.8,0-10.5,4-10.5,8.8V106.7c0,4.8,4.7,8.8,10.5,8.8H96.1c5.8,0,10.6-4,10.6-8.8V-14.4C106.7-19.2,102-23.2,96.2-23.2ZM-19.6-24.9a1.9,1.9,0,0,1,2.1-1.7H7.7c2.4,0,4.3-1.6,4.3-3.6,0-6.7,6.6-12.2,14.6-12.2s14.7,5.5,14.7,12.2c0,2,1.9,3.6,4.3,3.6H70.8a1.9,1.9,0,0,1,2.1,1.7v10.5c0,1-.9,1.7-2.1,1.7H-17.5c-1.2,0-2.1-.7-2.1-1.7ZM98.2,106.7a1.8,1.8,0,0,1-2,1.7h-139a1.8,1.8,0,0,1-2-1.7V-14.4a1.9,1.9,0,0,1,2-1.7h12.7a1.9,1.9,0,0,1,2,1.7v5.3c0,2,1.9,3.5,4.3,3.5h101c2.3,0,4.2-1.5,4.2-3.5v-5.3a1.9,1.9,0,0,1,2.1-1.7H96.1a2,2,0,0,1,2.1,1.7V106.7Z" transform="translate(53.3 49.5)" style="fill: #829ccc"/>
    <rect x="37.9" y="68.4" width="8.5" height="7.07" style="fill: #829ccc"/>
    <rect x="37.9" y="94.8" width="8.5" height="7.08" style="fill: #829ccc"/>
    <rect x="37.9" y="121.1" width="8.5" height="7.08" style="fill: #829ccc"/>
    <path d="M64.6,18.9H14.1c-2.4,0-4.3,1.6-4.3,3.6S11.7,26,14.1,26H64.6c2.3,0,4.2-1.6,4.2-3.5S66.9,18.9,64.6,18.9Z" transform="translate(53.3 49.5)" style="fill: #829ccc"/>
    <path d="M64.6,45.3H14.1c-2.4,0-4.3,1.5-4.3,3.5s1.9,3.5,4.3,3.5H64.6c2.3,0,4.2-1.6,4.2-3.5S66.9,45.3,64.6,45.3Z" transform="translate(53.3 49.5)" style="fill: #829ccc"/>
    <path d="M64.6,71.6H14.1c-2.4,0-4.3,1.6-4.3,3.5s1.9,3.5,4.3,3.5H64.6c2.3,0,4.2-1.6,4.2-3.5S66.9,71.6,64.6,71.6Z" transform="translate(53.3 49.5)" style="fill: #829ccc"/>
    <path d="M26.7-26.6h0c2.3,0,4.2-1.6,4.2-3.6s-1.9-3.5-4.2-3.5h0c-2.4,0-4.2,1.6-4.2,3.5S24.3-26.6,26.7-26.6Z" transform="translate(53.3 49.5)" style="fill: #829ccc"/>
  </g>
</svg>
