<svg id="Layer_1" data-name="Layer 1" xmlns="http://www.w3.org/2000/svg" xmlns:xlink="http://www.w3.org/1999/xlink" width="179.1" height="162.6" viewBox="0 0 179.1 162.6">
  <defs>
    <clipPath id="clip-path" transform="translate(-5 -14.5)">
      <rect x="5" y="13" width="180" height="165" style="fill: none"/>
    </clipPath>
    <clipPath id="clip-path-2" transform="translate(-5 -14.5)">
      <rect x="5" y="13.9" width="179.1" height="163.27" style="fill: none"/>
    </clipPath>
  </defs>
  <g style="clip-path: url(#clip-path)">
    <g style="clip-path: url(#clip-path-2)">
      <g style="clip-path: url(#clip-path-2)">
        <g style="clip-path: url(#clip-path-2)">
          <g>
            <path d="M74.9,177.1c-4.9,0-8.8-3.6-8.8-7.9a3.2,3.2,0,0,1,.3-1.4c10.8-23.9,27.8-61.4,29.9-67a1.3,1.3,0,0,0,.1-.6V24c0-.1.1-.2.1-.3v-.4A1.7,1.7,0,0,0,96,22a2,2,0,0,0-1.4-.5H88.8A3.7,3.7,0,0,1,85,18a3.7,3.7,0,0,1,3.8-3.5h74.3a3.7,3.7,0,0,1,3.8,3.5,3.7,3.7,0,0,1-3.8,3.5h-5.8a2.2,2.2,0,0,0-1.4.5,1.4,1.4,0,0,0-.5,1.3c0,.2,0,.3.1.4v76.6a.7.7,0,0,0,.1.5c1.9,5.5,18.3,44.1,28.2,67.1a5.3,5.3,0,0,1,.3,1.2c0,4.4-4,8-8.9,8Zm29.3-72.6a1.8,1.8,0,0,0-1.7,1.1c-3.2,7.7-12,27.5-27.8,62.2a1.5,1.5,0,0,0,.1,1.6,2.1,2.1,0,0,0,1.6.8h97.4a1.8,1.8,0,0,0,1.5-.8,1.2,1.2,0,0,0,.2-1.5c-14.8-34.7-23.1-54.4-26.2-62.3a1.8,1.8,0,0,0-1.7-1.1Zm1.7-20.8a1.8,1.8,0,0,0-1.8,1.7V95.8a1.8,1.8,0,0,0,1.8,1.7h40a1.8,1.8,0,0,0,1.9-1.7V24a2.7,2.7,0,0,0-2.8-2.5H106.8a2.7,2.7,0,0,0-2.7,2.5v9.5a1.7,1.7,0,0,0,1.8,1.7h11.5a3.5,3.5,0,1,1,0,7H105.9a1.8,1.8,0,0,0-1.8,1.7V54.3a1.8,1.8,0,0,0,1.8,1.7h11.5a3.5,3.5,0,1,1,0,6.9H105.9a1.8,1.8,0,0,0-1.8,1.7V75a1.8,1.8,0,0,0,1.8,1.7h11.5a3.5,3.5,0,1,1,0,6.9H105.9Z" transform="translate(-5 -14.5)" style="fill: #829ccc"/>
            <path d="M34.5,177.1c-13.1,0-23.8-9.7-23.8-21.6V23.2a1.7,1.7,0,0,0-1.8-1.7A3.7,3.7,0,0,1,5,18a3.6,3.6,0,0,1,3.8-3.5H60.2A3.6,3.6,0,0,1,64.1,18a3.6,3.6,0,0,1-3.9,3.4,1.8,1.8,0,0,0-1.8,1.7V155.5C58.4,167.4,47.7,177.1,34.5,177.1ZM20.3,104.5a1.8,1.8,0,0,0-1.9,1.7v49.3c0,8.1,7.2,14.7,16.2,14.7s16.1-6.6,16.1-14.7V106.2a1.8,1.8,0,0,0-1.8-1.7Zm0-20.8a1.8,1.8,0,0,0-1.9,1.7V95.8a1.8,1.8,0,0,0,1.9,1.7H48.8a1.8,1.8,0,0,0,1.9-1.7V23.2a1.7,1.7,0,0,0-1.9-1.7H20.3a1.7,1.7,0,0,0-1.9,1.7V33.5a1.7,1.7,0,0,0,1.9,1.7H31.7a3.5,3.5,0,1,1,0,7H20.3a1.8,1.8,0,0,0-1.9,1.7V54.3A1.8,1.8,0,0,0,20.3,56H31.7a3.5,3.5,0,1,1,0,6.9H20.3a1.8,1.8,0,0,0-1.9,1.7V75a1.8,1.8,0,0,0,1.9,1.7H31.7a3.5,3.5,0,1,1,0,6.9H20.3Z" transform="translate(-5 -14.5)" style="fill: #829ccc"/>
            <path d="M113.5,144.2h7.7v7h-7.7Z" transform="translate(-5 -14.5)" style="fill: #829ccc"/>
            <path d="M130.7,144.2h7.7v7h-7.7Z" transform="translate(-5 -14.5)" style="fill: #829ccc"/>
            <path d="M113.5,123.5h7.7v6.9h-7.7Z" transform="translate(-5 -14.5)" style="fill: #829ccc"/>
            <path d="M130.7,123.5h7.7v6.9h-7.7Z" transform="translate(-5 -14.5)" style="fill: #829ccc"/>
          </g>
        </g>
      </g>
    </g>
  </g>
</svg>
